<mxfile host="65bd71144e">
    <diagram id="IE1A98VCszIB06QazIlW" name="Seite-1">
        <mxGraphModel dx="2029" dy="639" grid="1" gridSize="10" guides="1" tooltips="1" connect="1" arrows="1" fold="1" page="1" pageScale="1" pageWidth="827" pageHeight="1169" background="#ffffff" math="0" shadow="0">
            <root>
                <mxCell id="0"/>
                <mxCell id="1" parent="0"/>
                <mxCell id="2" value="" style="ellipse;whiteSpace=wrap;html=1;fillColor=#085080;fontColor=#ffffff;strokeColor=#000000;sketch=0;strokeWidth=4;fontFamily=Helvetica;" parent="1" vertex="1">
                    <mxGeometry x="360" y="140" width="320" height="280" as="geometry"/>
                </mxCell>
                <mxCell id="3" value="" style="ellipse;whiteSpace=wrap;html=1;fillColor=#061B6B;fontColor=#ffffff;strokeColor=none;sketch=0;fontFamily=Helvetica;" parent="1" vertex="1">
                    <mxGeometry x="390" y="180" width="260" height="240" as="geometry"/>
                </mxCell>
                <mxCell id="4" value="" style="ellipse;whiteSpace=wrap;html=1;fillColor=#871BCF;strokeColor=none;sketch=0;gradientColor=none;fontFamily=Helvetica;" parent="1" vertex="1">
                    <mxGeometry x="410" y="220" width="220" height="200" as="geometry"/>
                </mxCell>
                <mxCell id="5" value="" style="ellipse;whiteSpace=wrap;html=1;fillColor=#FF8330;strokeColor=none;sketch=0;fontFamily=Helvetica;" parent="1" vertex="1">
                    <mxGeometry x="430" y="260" width="180" height="160" as="geometry"/>
                </mxCell>
                <mxCell id="6" value="" style="ellipse;whiteSpace=wrap;html=1;fillColor=#FAE630;strokeColor=none;fontColor=#ffffff;sketch=0;fontFamily=Helvetica;" parent="1" vertex="1">
                    <mxGeometry x="460" y="300" width="120" height="120" as="geometry"/>
                </mxCell>
                <mxCell id="7" value="&lt;b style=&quot;font-size: 15px;&quot;&gt;Mindset&lt;/b&gt;" style="text;html=1;strokeColor=none;fillColor=none;align=center;verticalAlign=middle;whiteSpace=wrap;rounded=0;fontSize=15;sketch=0;fontColor=#FFF8F9;fontFamily=Helvetica;" parent="1" vertex="1">
                    <mxGeometry x="490" y="150" width="60" height="30" as="geometry"/>
                </mxCell>
                <mxCell id="8" value="&lt;b style=&quot;font-size: 15px&quot;&gt;Values&lt;/b&gt;" style="text;html=1;strokeColor=none;fillColor=none;align=center;verticalAlign=middle;whiteSpace=wrap;rounded=0;fontSize=15;sketch=0;fontColor=#F0F0F0;fontFamily=Helvetica;" parent="1" vertex="1">
                    <mxGeometry x="490" y="190" width="60" height="30" as="geometry"/>
                </mxCell>
                <mxCell id="9" value="&lt;b style=&quot;font-size: 15px&quot;&gt;Principles&lt;/b&gt;" style="text;html=1;strokeColor=none;fillColor=none;align=center;verticalAlign=middle;whiteSpace=wrap;rounded=0;fontSize=15;fontColor=#FAFAFA;sketch=0;fontFamily=Helvetica;" parent="1" vertex="1">
                    <mxGeometry x="490" y="230" width="60" height="30" as="geometry"/>
                </mxCell>
                <mxCell id="10" value="&lt;b style=&quot;font-size: 15px&quot;&gt;Practices&lt;/b&gt;" style="text;html=1;strokeColor=none;fillColor=none;align=center;verticalAlign=middle;whiteSpace=wrap;rounded=0;fontSize=15;fontColor=#1C1C1C;sketch=0;fontFamily=Helvetica;" parent="1" vertex="1">
                    <mxGeometry x="490" y="270" width="60" height="30" as="geometry"/>
                </mxCell>
                <mxCell id="11" value="&lt;b style=&quot;font-size: 15px&quot;&gt;Tools and Processes&lt;/b&gt;" style="text;html=1;strokeColor=none;fillColor=none;align=center;verticalAlign=middle;whiteSpace=wrap;rounded=0;fontSize=15;fontColor=#1C1C1C;sketch=0;fontFamily=Helvetica;" parent="1" vertex="1">
                    <mxGeometry x="470" y="350" width="100" height="30" as="geometry"/>
                </mxCell>
                <mxCell id="12" value="" style="shape=curlyBracket;whiteSpace=wrap;html=1;rounded=1;flipH=1;fontSize=15;fontColor=#1C1C1C;fillColor=#1DA971;strokeColor=#050505;strokeWidth=5;sketch=0;fontFamily=Helvetica;" parent="1" vertex="1">
                    <mxGeometry x="700" y="270" width="20" height="150" as="geometry"/>
                </mxCell>
                <mxCell id="13" value="" style="shape=curlyBracket;whiteSpace=wrap;html=1;rounded=1;flipH=1;fontSize=15;fontColor=#1C1C1C;fillColor=#1DA971;strokeColor=#050505;strokeWidth=5;sketch=0;fontFamily=Helvetica;" parent="1" vertex="1">
                    <mxGeometry x="700" y="140" width="20" height="130" as="geometry"/>
                </mxCell>
                <mxCell id="14" value="Methodology" style="text;strokeColor=none;fillColor=none;html=1;fontSize=24;fontStyle=1;verticalAlign=middle;align=center;fontColor=#1C1C1C;sketch=0;fontFamily=Helvetica;" parent="1" vertex="1">
                    <mxGeometry x="740" y="325" width="160" height="40" as="geometry"/>
                </mxCell>
                <mxCell id="15" value="Ideology" style="text;strokeColor=none;fillColor=none;html=1;fontSize=24;fontStyle=1;verticalAlign=middle;align=left;fontColor=#1C1C1C;sketch=0;fontFamily=Helvetica;" parent="1" vertex="1">
                    <mxGeometry x="740" y="185" width="160" height="40" as="geometry"/>
                </mxCell>
                <mxCell id="16" value="The Manifesto &lt;br&gt;for agile Software Development" style="text;strokeColor=none;fillColor=none;html=1;fontSize=24;fontStyle=0;verticalAlign=top;align=left;fontColor=#1C1C1C;sketch=0;fontFamily=Helvetica;" parent="1" vertex="1">
                    <mxGeometry x="740" y="217" width="350" height="70" as="geometry"/>
                </mxCell>
                <mxCell id="17" value="The Scrum Guide" style="text;strokeColor=none;fillColor=none;html=1;fontSize=24;fontStyle=0;verticalAlign=top;align=left;fontColor=#1C1C1C;sketch=0;fontFamily=Helvetica;" parent="1" vertex="1">
                    <mxGeometry x="740" y="359" width="340" height="70" as="geometry"/>
                </mxCell>
                <mxCell id="19" value="" style="endArrow=classic;startArrow=classic;html=1;fontSize=15;fontColor=#FFF8F9;strokeColor=#0A0909;strokeWidth=4;fontFamily=Helvetica;" parent="1" edge="1">
                    <mxGeometry width="50" height="50" relative="1" as="geometry">
                        <mxPoint x="335" y="420" as="sourcePoint"/>
                        <mxPoint x="335" y="150" as="targetPoint"/>
                    </mxGeometry>
                </mxCell>
                <mxCell id="20" value="&lt;b&gt;More visible&lt;br&gt;Less impactful&lt;br&gt;&lt;/b&gt;" style="text;html=1;strokeColor=none;fillColor=none;align=right;verticalAlign=bottom;whiteSpace=wrap;rounded=0;fontSize=15;fontColor=#1C1C1C;sketch=0;" parent="1" vertex="1">
                    <mxGeometry x="-33" y="390" width="350" height="30" as="geometry"/>
                </mxCell>
                <mxCell id="21" value="&lt;b style=&quot;font-size: 15px&quot;&gt;Less visible&lt;br&gt;More impactful&lt;br&gt;&lt;/b&gt;" style="text;html=1;strokeColor=none;fillColor=none;align=right;verticalAlign=top;whiteSpace=wrap;rounded=0;fontSize=15;fontColor=#1C1C1C;sketch=0;" parent="1" vertex="1">
                    <mxGeometry x="-33" y="150" width="350" height="30" as="geometry"/>
                </mxCell>
            </root>
        </mxGraphModel>
    </diagram>
</mxfile>